<?xml version="1.0" encoding="UTF-8" standalone="no"?>
<!-- Created with Inkscape (http://www.inkscape.org/) -->

<svg
   xmlns:osb="http://www.openswatchbook.org/uri/2009/osb"
   xmlns:dc="http://purl.org/dc/elements/1.1/"
   xmlns:cc="http://creativecommons.org/ns#"
   xmlns:rdf="http://www.w3.org/1999/02/22-rdf-syntax-ns#"
   xmlns:svg="http://www.w3.org/2000/svg"
   xmlns="http://www.w3.org/2000/svg"
   xmlns:xlink="http://www.w3.org/1999/xlink"
   xmlns:sodipodi="http://sodipodi.sourceforge.net/DTD/sodipodi-0.dtd"
   xmlns:inkscape="http://www.inkscape.org/namespaces/inkscape"
   width="210mm"
   height="297mm"
   viewBox="0 0 210 297"
   version="1.1"
   id="svg8"
   inkscape:version="0.92.2 5c3e80d, 2017-08-06"
   sodipodi:docname="logo.svg">
  <defs
     id="defs2">
    <linearGradient
       id="linearGradient994-4"
       inkscape:collect="always">
      <stop
         id="stop1011"
         offset="0"
         style="stop-color:#ffc200;stop-opacity:1;" />
      <stop
         id="stop1013"
         offset="1"
         style="stop-color:#000060;stop-opacity:0.9137255" />
    </linearGradient>
    <linearGradient
       osb:paint="gradient"
       id="linearGradient994">
      <stop
         id="stop1006"
         offset="0"
         style="stop-color:#ffc200;stop-opacity:1;" />
      <stop
         id="stop1008"
         offset="1"
         style="stop-color:#ffcc00;stop-opacity:0;" />
    </linearGradient>
    <linearGradient
       inkscape:collect="always"
       xlink:href="#linearGradient994-4"
       id="linearGradient1004"
       x1="47.786808"
       y1="104.75941"
       x2="46.963535"
       y2="34.909409"
       gradientUnits="userSpaceOnUse"
       spreadMethod="pad"
       gradientTransform="matrix(1.0156087,0,0,1.0585743,4.3171127,-1.9583387)" />
  </defs>
  <sodipodi:namedview
     id="base"
     pagecolor="#ffffff"
     bordercolor="#666666"
     borderopacity="1.0"
     inkscape:pageopacity="0.0"
     inkscape:pageshadow="2"
     inkscape:zoom="2"
     inkscape:cx="187.99232"
     inkscape:cy="847.19679"
     inkscape:document-units="mm"
     inkscape:current-layer="layer1"
     showgrid="false"
     inkscape:window-width="1232"
     inkscape:window-height="669"
     inkscape:window-x="0"
     inkscape:window-y="0"
     inkscape:window-maximized="0" />
  <metadata
     id="metadata5">
    <rdf:RDF>
      <cc:Work
         rdf:about="">
        <dc:format>image/svg+xml</dc:format>
        <dc:type
           rdf:resource="http://purl.org/dc/dcmitype/StillImage" />
        <dc:title></dc:title>
      </cc:Work>
    </rdf:RDF>
  </metadata>
  <rect
     style="display:none;opacity:1;fill:url(#linearGradient1004);fill-opacity:1;stroke:#080000;stroke-width:0;stroke-miterlimit:4;stroke-dasharray:none;stroke-opacity:1;paint-order:markers fill stroke"
     id="rect182"
     width="107.72398"
     height="76.50618"
     x="1.1225325"
     y="33.433399"
     rx="4.4145732"
     ry="4.9614358" />
  <g
     inkscape:label="Layer 1"
     inkscape:groupmode="layer"
     id="layer1">
    <g
       aria-label="Mora
 "
       style="font-style:normal;font-variant:normal;font-weight:normal;font-stretch:normal;font-size:10.58333302px;line-height:1.25;font-family:'El Messiri';-inkscape-font-specification:'El Messiri';letter-spacing:0px;word-spacing:0px;fill:#ffae00;fill-opacity:1;stroke:none;stroke-width:0.26458332"
       id="text12"
       transform="translate(2.9996083)">
      <path
         d="m 73.205923,67.828093 c -0.813594,1.289844 -7.65308,9.517763 -14.157851,9.805025 -4.459611,0.196944 -11.267824,-0.09789 -15.988304,-4.585012 -3.898792,-3.706051 -5.825333,-8.94587 -5.825333,-14.3243 l -0.132292,-13.97 -11.58875,27.728334 h -1.74625 L 9.5854755,43.695472 V 91.532139 H 6.9396421 v -46.0375 c 0,-5.468056 -6.51325043,-7.563323 -6.51325043,-7.563323 0,0 12.34623633,-0.445591 13.15617333,0.561266 0.71254,0.885781 12.618744,25.046641 12.618744,25.046641 L 37.049226,37.557139 h 6.932084 v 21.166667 c 0,3.249965 1.144031,8.066378 3.286273,10.33386 2.444991,2.58793 6.701932,5.25563 11.642959,5.228732 5.11404,-0.02784 11.168554,-3.718863 13.032295,-7.022324 0.503999,-0.893334 1.263086,0.564019 1.263086,0.564019 z"
         style="font-style:normal;font-variant:normal;font-weight:bold;font-stretch:normal;font-size:52.91666794px;font-family:'El Messiri';-inkscape-font-specification:'El Messiri Bold';fill:#ffae00;stroke-width:0.26458332;fill-opacity:1"
         id="path89"
         inkscape:connector-curvature="0"
         sodipodi:nodetypes="csszccccccscscccssssc" />
      <path
         d="m 59.368814,71.388528 c -2.403593,0 -4.510852,-0.526815 -6.321778,-1.580444 -1.778,-1.086555 -3.144426,-2.535296 -4.099278,-4.346222 -0.954851,-1.843852 -1.432277,-3.901722 -1.432277,-6.173611 0,-2.271889 0.477426,-4.313297 1.432277,-6.124223 0.954852,-1.843851 2.321278,-3.292592 4.099278,-4.346222 1.810926,-1.086555 3.918185,-1.629833 6.321778,-1.629833 2.403593,0 4.494389,0.543278 6.272389,1.629833 1.810926,1.05363 3.193815,2.502371 4.148667,4.346222 0.954851,1.810926 1.432277,3.852334 1.432277,6.124223 0,2.271889 -0.477426,4.329759 -1.432277,6.173611 -0.954852,1.810926 -2.337741,3.259667 -4.148667,4.346222 -1.778,1.053629 -3.868796,1.580444 -6.272389,1.580444 z m 0,-2.2225 c 1.679222,0 2.963333,-0.905463 3.852333,-2.716388 0.889,-1.810926 1.3335,-4.198056 1.3335,-7.161389 0,-2.963333 -0.4445,-5.350463 -1.3335,-7.161389 -0.889,-1.810926 -2.173111,-2.716389 -3.852333,-2.716389 -1.679222,0 -2.963333,0.905463 -3.852333,2.716389 -0.889,1.810926 -1.3335,4.198056 -1.3335,7.161389 0,2.963333 0.4445,5.350463 1.3335,7.161389 0.889,1.810925 2.173111,2.716388 3.852333,2.716388 z"
         style="font-size:49.38888931px;fill:#ffae00;fill-opacity:1"
         id="path91"
         inkscape:connector-curvature="0"
         sodipodi:nodetypes="sccsccsccsccssssssssss" />
      <path
         d="m 93.970248,46.059084 c 0.592667,0.428037 1.020704,0.905463 1.284111,1.432277 0.263408,0.49389 0.395112,0.757297 0.395112,0.790223 l -2.518834,1.926166 c -0.362185,-0.526814 -0.839611,-0.971314 -1.432278,-1.3335 -0.592666,-0.39511 -3.367851,-0.592666 -4.092221,-0.592666 -1.909704,0 -6.549907,1.039519 -7.570611,2.060222 0.131704,1.05363 0.187096,2.373123 0.197555,2.899834 V 79.890473 H 74.87086 V 51.98575 c 0,-1.679222 -0.230481,-2.913944 -0.691445,-3.704166 -0.428036,-0.823148 -1.333499,-1.234723 -2.716389,-1.234723 h -0.493889 v -1.481666 h 4.8895 c 1.119482,0 1.99202,0.148167 2.617612,0.4445 0.658518,0.263408 1.16887,0.724371 1.531055,1.382889 1.778,-1.547518 5.969,-2.321278 8.339667,-2.321278 1.415815,0 4.701351,0.32926 5.623277,0.987778 z"
         style="font-size:49.38888931px;fill:#ffae00;fill-opacity:1"
         id="path93"
         inkscape:connector-curvature="0"
         sodipodi:nodetypes="cccccscsccscsccsccsc" />
      <path
         d="m 90.278653,76.151028 c -2.667,0 -4.741333,-0.592667 -6.223,-1.778 -1.448742,-1.218259 -2.173114,-2.848092 -2.173114,-4.8895 0,-1.646296 0.378649,-3.012722 1.135945,-4.099277 0.79022,-1.086556 2.156646,-1.909704 4.099279,-2.469445 1.942627,-0.559741 4.642554,-0.839611 8.09978,-0.839611 h 0.74083 c 0,-2.864555 -0.39511,-4.8895 -1.18533,-6.074833 -0.790226,-1.218259 -1.959096,-1.827389 -3.50661,-1.827389 -1.284113,0 -2.337743,0.312796 -3.16089,0.938389 -0.823153,0.625593 -1.41582,1.794463 -1.778,3.506611 h -2.71639 c 0,-1.119481 0.06585,-2.074333 0.19755,-2.864556 0.164634,-0.790222 0.510357,-1.481666 1.03717,-2.074333 1.020707,-1.152407 3.49015,-1.728611 7.40833,-1.728611 3.292594,0 5.794964,0.872537 7.507107,2.617611 1.74508,1.712148 2.61762,4.296833 2.61762,7.754055 V 75.65714 h -4.198057 l -1.72861,-2.2225 h -0.24695 c -0.493886,0.757296 -1.267643,1.399351 -2.32127,1.926166 -1.020706,0.526815 -2.222503,0.790222 -3.60539,0.790222 z m 1.48166,-2.469444 c 0.98778,0 1.843857,-0.329259 2.56823,-0.987778 0.757294,-0.658519 1.30057,-1.399352 1.62983,-2.2225 v -6.173611 h -0.74083 c -2.33774,0 -4.033426,0.428037 -5.08706,1.284111 -1.053626,0.823148 -1.58044,2.123722 -1.58044,3.901722 0,1.349963 0.27987,2.38713 0.83961,3.1115 0.55974,0.724371 1.34996,1.086556 2.37066,1.086556 z"
         style="font-size:49.38888931px;fill:#ffae00;fill-opacity:1"
         id="path95"
         inkscape:connector-curvature="0"
         sodipodi:nodetypes="scscssccscccccscscccccsscccscsss" />
    </g>
    <g
       aria-label="&amp; the End "
       style="font-style:normal;font-variant:normal;font-weight:normal;font-stretch:normal;font-size:10.58333302px;line-height:1.25;font-family:'El Messiri';-inkscape-font-specification:'El Messiri';letter-spacing:0px;word-spacing:0px;display:none;fill:#000000;fill-opacity:1;stroke:none;stroke-width:0.26458332"
       id="text18"
       transform="translate(3.000067)">
      <path
         d="m 24.550294,91.968208 -0.938389,-0.938389 q 0,0.04939 -0.642056,0.419806 -0.617361,0.370417 -1.580444,0.691444 -0.938389,0.321028 -2.024944,0.321028 -3.210278,0 -4.667251,-1.061861 -1.432277,-1.061861 -1.432277,-2.765778 0,-1.531055 1.037166,-2.642305 1.037167,-1.135945 2.864556,-2.074334 -0.864306,-0.765527 -1.802695,-2.074333 -0.938388,-1.3335 -0.938388,-2.815167 0,-1.827389 1.308805,-2.839861 1.308806,-1.012472 3.630084,-1.012472 2.197805,0 3.383138,0.938389 1.185334,0.938389 1.185334,2.518833 0,1.407584 -1.037167,2.617611 -1.037167,1.185334 -2.790472,2.321278 l 4.568472,4.938889 q 0.66675,-0.740833 1.481667,-2.00025 0.271639,-0.395111 0.592666,-0.987778 l 0.938389,0.617361 q -0.22225,0.543278 -0.543277,1.061861 -0.740834,1.259417 -1.629834,2.222501 l 2.395361,2.543527 z M 19.364461,76.163764 q -0.889,0 -1.308806,0.642055 -0.419806,0.642056 -0.419806,2.2225 0,1.975556 1.55575,3.531306 0.864306,-0.790222 1.308806,-1.654528 0.469194,-0.889 0.469194,-2.024944 0,-1.407584 -0.493888,-2.049639 -0.469195,-0.66675 -1.11125,-0.66675 z m 0.22225,15.310555 q 0.963083,0 1.827388,-0.370416 0.864306,-0.370417 1.456973,-0.913695 l -4.716639,-5.087055 q -1.679223,1.481666 -1.679223,3.284361 0,1.432278 0.790223,2.271889 0.790222,0.814916 2.321278,0.814916 z"
         style="font-size:24.69444466px"
         inkscape:connector-curvature="0"
         id="path137" />
      <path
         d="m 35.006737,92.144597 c -0.811389,0 -1.440509,-0.217546 -1.887361,-0.652639 -0.446852,-0.446851 -0.670278,-1.087731 -0.670278,-1.922639 V 84.47168 h -1.058333 v -0.79375 h 1.058333 v -5.291667 l 0.881945,-1.058333 h 1.411111 v 6.35 h 1.940278 v 0.79375 h -1.940278 v 5.203473 c 0,0.635 0.07644,1.075972 0.229305,1.322916 0.152871,0.235185 0.382176,0.352778 0.687917,0.352778 0.482129,0 0.94662,-0.15875 1.393472,-0.47625 l 0.246945,0.493889 c -0.587963,0.517407 -1.352315,0.776111 -2.293056,0.776111 z"
         style="font-style:normal;font-variant:normal;font-weight:bold;font-stretch:normal;font-size:17.63888931px;font-family:'El Messiri';-inkscape-font-specification:'El Messiri Bold';stroke-width:0.26458332"
         inkscape:connector-curvature="0"
         id="path139"
         sodipodi:nodetypes="scscccccccccccscsccs" />
      <path
         d="m 38.314304,79.444597 c 0,-0.599722 -0.08232,-1.040694 -0.246945,-1.322917 -0.164629,-0.293981 -0.363874,-0.440972 -0.987777,-0.440972 h -0.176389 v -0.529167 h 2.116666 c 0.423333,0 0.746713,0.07056 0.970139,0.211667 0.223426,0.141111 0.382176,0.376297 0.47625,0.705556 0.09407,0.3175 0.141111,0.776111 0.141111,1.375833 v 4.727222 c 0.223426,-0.176389 0.511528,-0.329259 0.864306,-0.458611 0.352778,-0.141111 0.711435,-0.211667 1.075972,-0.211667 0.9525,0 1.74625,0.246945 2.38125,0.740834 0.646759,0.482129 0.970139,1.311157 0.970139,2.487083 v 5.23875 h -2.293055 v -5.150555 c 0,-0.846667 -0.15287,-1.464028 -0.458611,-1.852084 -0.293982,-0.388055 -0.670278,-0.582083 -1.128889,-0.582083 -0.458611,0 -0.928982,0.205787 -1.411112,0.617361 v 6.967361 h -2.293055 z"
         style="font-style:normal;font-variant:normal;font-weight:bold;font-stretch:normal;font-size:17.63888931px;font-family:'El Messiri';-inkscape-font-specification:'El Messiri Bold';stroke-width:0.26458332"
         inkscape:connector-curvature="0"
         id="path141"
         sodipodi:nodetypes="scsccsscsccscsccscscccs" />
      <path
         d="m 51.577372,92.144597 q -1.217083,0 -2.134305,-0.564444 -0.917223,-0.564445 -1.42875,-1.534584 -0.493889,-0.987777 -0.493889,-2.2225 0,-1.375833 0.493889,-2.345972 0.511527,-0.970139 1.393472,-1.464028 0.881944,-0.511528 1.993194,-0.511528 1.093612,0 1.975556,0.440973 0.881944,0.440972 1.393472,1.252361 0.511528,0.79375 0.511528,1.834444 l -0.07056,1.11125 h -5.309305 q 0,1.675695 0.511528,2.451806 0.511527,0.758472 1.42875,0.758472 0.846666,0 1.411111,-0.370416 0.582083,-0.388056 1.11125,-1.093612 l 0.546805,0.405695 q -0.511527,0.79375 -1.287639,1.322917 -0.758472,0.529166 -2.046111,0.529166 z m 1.322917,-4.797778 q 0,-1.658055 -0.388056,-2.345972 -0.388055,-0.705556 -1.11125,-0.705556 -0.670277,0 -1.093611,0.723195 -0.405694,0.705555 -0.405694,2.328333 z"
         style="font-style:normal;font-variant:normal;font-weight:bold;font-stretch:normal;font-size:17.63888931px;font-family:'El Messiri';-inkscape-font-specification:'El Messiri Bold';stroke-width:0.26458332"
         inkscape:connector-curvature="0"
         id="path143" />
      <path
         d="m 63.867544,80.749874 q 0,-1.0795 -0.296333,-1.5875 -0.296334,-0.529166 -1.185334,-0.529166 H 62.17421 v -0.635001 h 9.334501 q 1.799167,0 1.799167,1.693334 v 1.799167 h -0.635 q 0,-1.312334 -0.677334,-1.926167 -0.656166,-0.613833 -1.9685,-0.613833 h -3.407833 v 5.291667 h 5.503333 v 0.9525 h -5.503333 v 5.820833 h 3.6195 q 1.2065,0 2.010833,-0.529166 0.804334,-0.550334 1.3335,-1.883834 l 0.571501,0.211667 -0.613834,1.672167 q -0.275167,0.762 -0.656167,1.121833 -0.381,0.359833 -1.185333,0.359833 h -7.831667 z"
         style="font-size:21.16666794px"
         inkscape:connector-curvature="0"
         id="path145" />
      <path
         d="m 75.959552,85.970986 q 0,-0.899583 -0.246944,-1.322917 -0.229306,-0.440972 -0.970139,-0.440972 H 74.56608 V 83.67793 h 1.74625 q 0.599722,0 0.934861,0.15875 0.352778,0.141111 0.546806,0.493889 0.899583,-0.829028 2.575277,-0.829028 1.675695,0 2.504723,0.79375 0.846666,0.776112 0.846666,2.451806 v 5.221111 h -2.293055 v -5.23875 q 0,-1.217083 -0.458611,-1.781528 -0.440973,-0.564444 -1.217084,-0.564444 -0.934861,0 -1.499305,0.440972 v 7.14375 h -2.293056 z"
         style="font-style:normal;font-variant:normal;font-weight:bold;font-stretch:normal;font-size:17.63888931px;font-family:'El Messiri';-inkscape-font-specification:'El Messiri Bold';stroke-width:0.26458332"
         inkscape:connector-curvature="0"
         id="path147" />
      <path
         d="m 89.033832,92.144597 c -1.187685,0 -2.104907,-0.399815 -2.751666,-1.199444 -0.635,-0.811389 -0.9525,-1.852084 -0.9525,-3.122084 0,-1.27 0.32338,-2.304815 0.970139,-3.104444 0.658518,-0.811389 1.599259,-1.217084 2.822222,-1.217084 0.670278,0 1.287639,0.176389 1.852083,0.529167 v -1.411111 c 0,-0.599722 -0.08231,-2.628194 -0.246944,-2.910417 -0.16463,-0.293981 -0.493889,-0.440972 -0.987778,-0.440972 h -0.176389 v -0.529167 h 2.116667 c 0.423333,0 0.746713,0.07056 0.970139,0.211667 0.223426,0.141111 0.382176,0.376297 0.47625,0.705556 0.09407,0.3175 0.141111,2.363611 0.141111,2.963333 v 9.348611 H 91.76786 l -0.617361,-0.79375 h -0.08819 c -0.16463,0.270463 -0.429213,0.499769 -0.79375,0.687917 -0.352778,0.188148 -0.764352,0.282222 -1.234723,0.282222 z m 0.352778,-0.79375 c 0.376297,0 0.693797,-0.117593 0.9525,-0.352778 0.270463,-0.235185 0.48213,-0.499768 0.635,-0.79375 v -5.379861 c -0.482129,-0.352778 -0.981898,-0.529167 -1.499305,-0.529167 -1.175926,0 -1.763889,1.175926 -1.763889,3.527778 0,1.093611 0.129352,1.957917 0.388055,2.592917 0.270463,0.623241 0.699676,0.934861 1.287639,0.934861 z"
         style="font-style:normal;font-variant:normal;font-weight:bold;font-stretch:normal;font-size:17.63888931px;font-family:'El Messiri';-inkscape-font-specification:'El Messiri Bold';stroke-width:0.26458332"
         inkscape:connector-curvature="0"
         id="path149"
         sodipodi:nodetypes="scscscscsccsscscccccssscccsscs" />
    </g>
    <g
       aria-label="of the World"
       style="font-style:normal;font-variant:normal;font-weight:normal;font-stretch:normal;font-size:10.58333302px;line-height:1.25;font-family:'El Messiri';-inkscape-font-specification:'El Messiri';letter-spacing:0px;word-spacing:0px;display:none;fill:#000000;fill-opacity:1;stroke:none;stroke-width:0.26458332"
       id="text108"
       transform="translate(3.0004165)">
      <path
         d="m 10.589473,103.79393 q -1.0158837,0 -1.7812747,-0.44533 -0.751475,-0.45923 -1.1550449,-1.22462 -0.4035699,-0.77931 -0.4035699,-1.73953 0,-0.960211 0.4035699,-1.725599 0.4035699,-0.779306 1.1550449,-1.224625 0.765391,-0.459234 1.7812747,-0.459234 1.015883,0 1.767358,0.459234 0.765391,0.445319 1.168962,1.224625 0.40357,0.765388 0.40357,1.725599 0,0.96022 -0.40357,1.73953 -0.403571,0.76539 -1.168962,1.22462 -0.751475,0.44533 -1.767358,0.44533 z m 0,-0.62623 q 0.709727,0 1.085464,-0.7654 0.375738,-0.76539 0.375738,-2.01785 0,-1.252452 -0.375738,-2.017839 -0.375737,-0.76539 -1.085464,-0.76539 -0.7097267,0 -1.0854647,0.76539 -0.3757373,0.765387 -0.3757373,2.017839 0,1.25246 0.3757373,2.01785 0.375738,0.7654 1.0854647,0.7654 z"
         style="font-style:normal;font-variant:normal;font-weight:bold;font-stretch:normal;font-size:17.63888931px;font-family:'El Messiri';-inkscape-font-specification:'El Messiri Bold';stroke-width:0.20874304"
         id="path116"
         inkscape:connector-curvature="0" />
      <path
         d="m 15.517537,97.415964 h -1.058333 v -0.79375 h 1.058333 v -0.47625 c 0,-0.999537 0.282222,-1.75801 0.846667,-2.275417 0.576203,-0.517407 1.440509,-0.776111 2.592917,-0.776111 0.329259,0 0.640879,0.0294 0.934861,0.08819 0.305741,0.04704 0.529167,0.117596 0.670278,0.211667 0.305741,0.176389 0.535046,0.429213 0.687916,0.758472 l -0.705555,0.617361 c -0.176389,-0.282222 -0.393936,-0.499768 -0.652639,-0.652639 -0.258704,-0.15287 -0.540926,-0.229305 -0.846667,-0.229305 -0.411574,0 -0.723194,0.170509 -0.934861,0.511528 -0.199907,0.341018 -0.299861,0.923101 -0.299861,1.74625 v 0.47625 h 2.293055 v 0.79375 h -2.293055 v 10.14235 h -2.293056 z"
         style="font-style:normal;font-variant:normal;font-weight:bold;font-stretch:normal;font-size:17.63888931px;font-family:'El Messiri';-inkscape-font-specification:'El Messiri Bold';stroke-width:0.26458332"
         id="path118"
         inkscape:connector-curvature="0"
         sodipodi:nodetypes="ccccscscccccscsccccccc" />
      <path
         d="m 28.672565,107.20555 c -0.811389,0 -1.44051,-0.21755 -1.887361,-0.65264 -0.446852,-0.44685 -0.670278,-1.08773 -0.670278,-1.92264 v -5.097638 h -1.058334 v -0.79375 h 1.058334 v -4.7625 l 0.881944,-1.058334 h 1.411111 v 5.820834 h 1.940278 v 0.79375 h -1.940278 v 5.203468 c 0,0.635 0.07644,1.07597 0.229306,1.32292 0.152871,0.23519 0.382176,0.35278 0.687917,0.35278 0.482129,0 0.94662,-0.15875 1.393472,-0.47625 l 0.246944,0.49389 c -0.587963,0.51741 -1.352314,0.77611 -2.293055,0.77611 z"
         style="font-style:normal;font-variant:normal;font-weight:bold;font-stretch:normal;font-size:17.63888931px;font-family:'El Messiri';-inkscape-font-specification:'El Messiri Bold';stroke-width:0.26458332"
         id="path120"
         inkscape:connector-curvature="0"
         sodipodi:nodetypes="scscccccccccccscsccs" />
      <path
         d="m 31.980133,95.034715 c 0,-0.599722 -0.08231,-1.040694 -0.246944,-1.322916 -0.164629,-0.293982 -0.527577,-0.440973 -0.987778,-0.440973 H 30.569022 V 92.74166 h 2.116667 c 0.423333,0 0.746713,0.07055 0.970139,0.211666 0.223426,0.141111 0.382176,0.376296 0.47625,0.705556 0.09407,0.3175 0.141111,0.776111 0.141111,1.375833 v 4.198055 c 0.223426,-0.176389 0.511528,-0.329259 0.864306,-0.458611 0.352777,-0.141111 0.711435,-0.211666 1.075972,-0.211666 0.9525,0 1.74625,0.246944 2.38125,0.740833 0.646759,0.482129 0.970139,1.311154 0.970139,2.487084 v 5.23875 H 37.2718 v -5.15056 c 0,-0.84667 -0.15287,-1.46403 -0.458611,-1.85208 -0.293981,-0.388055 -0.670278,-0.582083 -1.128889,-0.582083 -0.458611,0 -0.928981,0.205788 -1.411111,0.617363 v 6.96736 h -2.293056 z"
         style="font-style:normal;font-variant:normal;font-weight:bold;font-stretch:normal;font-size:17.63888931px;font-family:'El Messiri';-inkscape-font-specification:'El Messiri Bold';stroke-width:0.26458332"
         id="path122"
         inkscape:connector-curvature="0"
         sodipodi:nodetypes="scsccsccsccscsccscscccs" />
      <path
         d="m 45.243198,107.20555 q -1.217083,0 -2.134306,-0.56445 -0.917222,-0.56444 -1.42875,-1.53458 -0.493888,-0.98778 -0.493888,-2.2225 0,-1.37583 0.493888,-2.34597 0.511528,-0.970141 1.393473,-1.46403 0.881944,-0.511527 1.993194,-0.511527 1.093611,0 1.975556,0.440972 0.881944,0.440972 1.393472,1.252365 0.511528,0.79375 0.511528,1.83444 l -0.07056,1.11125 H 43.5675 q 0,1.6757 0.511527,2.45181 0.511528,0.75847 1.42875,0.75847 0.846667,0 1.411112,-0.37042 0.582083,-0.38805 1.11125,-1.09361 l 0.546805,0.4057 q -0.511528,0.79375 -1.287639,1.32291 -0.758472,0.52917 -2.046111,0.52917 z m 1.322917,-4.79778 q 0,-1.65806 -0.388056,-2.34597 -0.388055,-0.705557 -1.11125,-0.705557 -0.670278,0 -1.093611,0.723197 -0.405694,0.70555 -0.405694,2.32833 z"
         style="font-style:normal;font-variant:normal;font-weight:bold;font-stretch:normal;font-size:17.63888931px;font-family:'El Messiri';-inkscape-font-specification:'El Messiri Bold';stroke-width:0.26458332"
         id="path124"
         inkscape:connector-curvature="0" />
      <path
         d="m 55.226206,95.535659 c -0.310445,-0.776111 -0.993408,-1.373217 -1.481667,-1.651 -0.488258,-0.277783 -3.351389,-0.515056 -3.788833,-0.5715 v -0.423334 l 4.064,-0.04233 c 0.945444,0 1.770944,0.176389 2.4765,0.529167 0.705555,0.338667 1.277055,1.058333 1.7145,2.159 l 2.8575,7.302498 1.905,-5.418665 -0.740833,-1.883833 c -0.310445,-0.762 -0.99817,-1.298154 -1.545167,-1.629834 -0.546996,-0.33168 -3.407833,-0.536222 -3.8735,-0.592666 v -0.423334 l 4.0005,-0.04233 c 0.945445,0 1.770945,0.176389 2.4765,0.529167 0.705556,0.352777 1.277056,1.072444 1.7145,2.159 l 3.026834,7.704675 3.6195,-10.181175 h 1.016 l -5.0165,14.160505 h -0.846667 l -3.259667,-8.297338 -2.899833,8.297338 h -0.846667 z"
         style="font-size:21.16666794px"
         id="path126"
         inkscape:connector-curvature="0"
         sodipodi:nodetypes="czcccccccczcccccccccccccc" />
      <path
         d="m 75.665081,104.12133 q -1.064659,0 -1.866799,-0.4667 -0.787557,-0.48129 -1.210504,-1.28343 -0.422947,-0.81672 -0.422947,-1.82304 0,-1.006323 0.422947,-1.80846 0.422947,-0.816724 1.210504,-1.283424 0.80214,-0.481284 1.866799,-0.481284 1.06466,0 1.852216,0.481284 0.802141,0.4667 1.225088,1.283424 0.422947,0.802137 0.422947,1.80846 0,1.00632 -0.422947,1.82304 -0.422947,0.80214 -1.225088,1.28343 -0.787556,0.4667 -1.852216,0.4667 z m 0,-0.6563 q 0.743804,0 1.137582,-0.80214 0.393778,-0.80214 0.393778,-2.11473 0,-1.312595 -0.393778,-2.114732 -0.393778,-0.802139 -1.137582,-0.802139 -0.743803,0 -1.137581,0.802139 -0.393778,0.802137 -0.393778,2.114732 0,1.31259 0.393778,2.11473 0.393778,0.80214 1.137581,0.80214 z"
         style="font-style:normal;font-variant:normal;font-weight:bold;font-stretch:normal;font-size:17.63888931px;font-family:'El Messiri';-inkscape-font-specification:'El Messiri Bold';stroke-width:0.21876563"
         id="path128"
         inkscape:connector-curvature="0" />
      <path
         d="m 86.412365,96.798601 c 0.211667,0.152871 0.364537,0.32338 0.458611,0.511528 0.09408,0.176389 0.141112,0.270463 0.141112,0.282222 l -0.899584,0.68792 c -0.129352,-0.188153 -0.299861,-0.346904 -0.511528,-0.476253 -0.211667,-0.141111 -0.446852,-0.211667 -0.705555,-0.211667 -0.682037,0 -1.205324,0.18227 -1.569861,0.54681 0.04703,0.376291 0.07055,0.658509 0.07055,0.846654 v 8.043325 h -2.293055 v -8.113872 c 0,-0.599725 -0.08231,-1.040697 -0.246945,-1.322917 -0.15287,-0.293981 -0.813957,0.02757 -0.970139,-0.440972 h -0.176389 v -0.529166 h 1.74625 c 0.399815,0 0.711436,0.05292 0.934862,0.15875 0.235185,0.09407 0.417453,0.258703 0.546805,0.493888 0.635,-0.552685 1.375833,-0.829027 2.2225,-0.829027 0.505648,0 0.923102,0.117592 1.252361,0.352777 z"
         style="font-style:normal;font-variant:normal;font-weight:bold;font-stretch:normal;font-size:17.63888931px;font-family:'El Messiri';-inkscape-font-specification:'El Messiri Bold';stroke-width:0.26458332"
         id="path130"
         inkscape:connector-curvature="0"
         sodipodi:nodetypes="cccccscsccscsccsccscc" />
      <path
         d="m 88.193343,97.15138 c 0,-0.599722 -0.08231,-1.040694 -0.246945,-1.322916 -0.164629,-0.293982 -0.831596,0.02757 -0.987778,-0.440973 h -0.176389 v -0.529166 h 2.116667 c 0.423333,0 0.746713,0.07055 0.970139,0.211666 0.223426,0.141111 0.382176,0.376297 0.47625,0.705556 0.09407,0.3175 0.141111,0.776111 0.141111,1.375833 v 9.87777 h -2.293055 z"
         style="font-style:normal;font-variant:normal;font-weight:bold;font-stretch:normal;font-size:17.63888931px;font-family:'El Messiri';-inkscape-font-specification:'El Messiri Bold';stroke-width:0.26458332"
         id="path132"
         inkscape:connector-curvature="0"
         sodipodi:nodetypes="scsccsccsccs" />
      <path
         d="m 96.49795,107.20555 c -1.187685,0 -2.104908,-0.39982 -2.751667,-1.19945 -0.635,-0.81139 -0.9525,-1.85208 -0.9525,-3.12208 0,-1.27 0.32338,-2.30481 0.970139,-3.104444 0.658519,-0.811389 1.599259,-1.217083 2.822222,-1.217083 0.670281,0 1.287639,0.176389 1.852075,0.529166 V 80.747215 c 0,-0.599722 -0.08231,-1.040694 -0.246937,-1.322916 -0.164633,-0.293982 -0.493892,-0.440973 -0.987777,-0.440973 H 97.027117 V 78.45416 h 2.116659 c 0.423331,0 0.746709,0.07055 0.970134,0.211666 0.22343,0.141111 0.38218,0.376296 0.47625,0.705556 0.0941,0.3175 0.14111,0.776111 0.14111,1.375833 v 26.281945 h -1.499304 l -0.617357,-0.79375 h -0.0882 c -0.164631,0.27046 -0.429213,0.49977 -0.793744,0.68792 -0.35278,0.18815 -0.764355,0.28222 -1.234725,0.28222 z m 0.352778,-0.79375 c 0.376298,0 0.693797,-0.11759 0.952497,-0.35278 0.270465,-0.23519 0.482129,-0.49977 0.634994,-0.79375 v -5.379861 c -0.482123,-0.352777 -0.981888,-0.529166 -1.499297,-0.529166 -1.175926,0 -1.763889,1.175927 -1.763889,3.527777 0,1.09361 0.129352,1.95792 0.388056,2.59292 0.270463,0.62324 0.699676,0.93486 1.287639,0.93486 z"
         style="font-style:normal;font-variant:normal;font-weight:bold;font-stretch:normal;font-size:17.63888931px;font-family:'El Messiri';-inkscape-font-specification:'El Messiri Bold';stroke-width:0.26458332"
         id="path134"
         inkscape:connector-curvature="0"
         sodipodi:nodetypes="ccscscscsccsccscccccccscccsscs" />
    </g>
    <g
       aria-label="&amp; the End "
       style="font-style:normal;font-variant:normal;font-weight:bold;font-stretch:normal;font-size:17.63888741px;line-height:1.25;font-family:'El Messiri';-inkscape-font-specification:'El Messiri Bold';letter-spacing:0px;word-spacing:0px;fill:#ff7e00;fill-opacity:1;stroke:none;stroke-width:0.26458332"
       id="text154">
      <path
         d="m 27.511361,90.88958 -0.938389,-0.938389 q 0,0.04939 -0.642055,0.419805 -0.617361,0.370417 -1.580445,0.691445 -0.938389,0.321028 -2.024944,0.321028 -3.210278,0 -4.66725,-1.061861 Q 16.226,89.259746 16.226,87.55583 q 0,-1.531056 1.037167,-2.642306 1.037166,-1.135944 2.864555,-2.074333 -0.864305,-0.765528 -1.802694,-2.074334 -0.938389,-1.3335 -0.938389,-2.815166 0,-1.827389 1.308805,-2.839861 1.308806,-1.012473 3.630084,-1.012473 2.197805,0 3.383139,0.938389 1.185333,0.938389 1.185333,2.518834 0,1.407583 -1.037167,2.617611 -1.037166,1.185333 -2.790472,2.321278 l 4.568472,4.938889 q 0.66675,-0.740834 1.481667,-2.00025 0.271639,-0.395112 0.592667,-0.987778 l 0.938389,0.617361 q -0.22225,0.543278 -0.543278,1.061861 -0.740834,1.259417 -1.629834,2.2225 l 2.395362,2.543528 z M 22.325528,75.085135 q -0.889,0 -1.308806,0.642056 -0.419805,0.642055 -0.419805,2.2225 0,1.975555 1.55575,3.531305 0.864305,-0.790222 1.308805,-1.654527 0.469195,-0.889 0.469195,-2.024945 0,-1.407583 -0.493889,-2.049639 -0.469195,-0.66675 -1.11125,-0.66675 z m 0.22225,15.310556 q 0.963083,0 1.827389,-0.370417 0.864305,-0.370416 1.456972,-0.913694 L 21.1155,84.024524 q -1.679222,1.481667 -1.679222,3.284361 0,1.432278 0.790222,2.271889 0.790222,0.814917 2.321278,0.814917 z"
         style="font-size:24.69444466px;fill:#ff7e00;fill-opacity:1"
         id="path1039"
         inkscape:connector-curvature="0" />
      <path
         d="m 39.555305,91.065969 q -1.217083,0 -1.887361,-0.652639 -0.670278,-0.670278 -0.670278,-1.922639 v -5.097638 h -1.058333 v -0.79375 h 1.058333 v -1.5875 l 0.881945,-1.058333 h 1.411111 v 2.645833 h 1.940277 v 0.79375 h -1.940277 v 5.203471 q 0,0.9525 0.229305,1.322917 0.229306,0.352778 0.687917,0.352778 0.723194,0 1.393472,-0.47625 l 0.246944,0.493889 q -0.881944,0.776111 -2.293055,0.776111 z"
         style="fill:#ff7e00;fill-opacity:1"
         id="path1041"
         inkscape:connector-curvature="0" />
      <path
         d="m 42.862872,81.540969 q 0,-0.899583 -0.246944,-1.322916 -0.246945,-0.440972 -0.987778,-0.440972 h -0.176389 v -0.529167 h 2.116666 q 0.635,0 0.970139,0.211667 0.335139,0.211666 0.47625,0.705555 0.141111,0.47625 0.141111,1.375833 v 1.552223 q 0.335139,-0.264584 0.864306,-0.458612 0.529166,-0.211666 1.075972,-0.211666 1.42875,0 2.38125,0.740833 0.970139,0.723194 0.970139,2.487083 v 5.23875 h -2.293056 v -5.150555 q 0,-1.27 -0.458611,-1.852084 -0.440972,-0.582083 -1.128889,-0.582083 -0.687916,0 -1.411111,0.617361 v 6.967361 h -2.293055 z"
         style="fill:#ff7e00;fill-opacity:1"
         id="path1043"
         inkscape:connector-curvature="0" />
      <path
         d="m 56.125936,91.065969 q -1.217083,0 -2.134305,-0.564445 -0.917222,-0.564444 -1.42875,-1.534583 -0.493889,-0.987778 -0.493889,-2.2225 0,-1.375833 0.493889,-2.345972 0.511528,-0.970139 1.393472,-1.464027 0.881944,-0.511528 1.993194,-0.511528 1.093611,0 1.975556,0.440972 0.881944,0.440972 1.393472,1.252361 0.511528,0.79375 0.511528,1.834444 l -0.07056,1.11125 h -5.309305 q 0,1.675695 0.511528,2.451806 0.511527,0.758472 1.428749,0.758472 0.846667,0 1.411111,-0.370417 0.582084,-0.388055 1.11125,-1.093611 l 0.546806,0.405694 q -0.511528,0.79375 -1.287639,1.322917 -0.758472,0.529167 -2.046111,0.529167 z m 1.322917,-4.797778 q 0,-1.658055 -0.388056,-2.345972 -0.388055,-0.705555 -1.11125,-0.705555 -0.670277,0 -1.093611,0.723194 -0.405694,0.705556 -0.405694,2.328333 z"
         style="fill:#ff7e00;fill-opacity:1"
         id="path1045"
         inkscape:connector-curvature="0" />
      <path
         d="m 66.493468,81.540969 q 0,-0.899583 -0.246944,-1.322916 -0.246945,-0.440972 -0.987778,-0.440972 h -0.176389 v -0.529167 h 7.778749 q 1.499306,0 1.499306,1.411111 v 1.499306 h -0.529167 q 0,-1.093612 -0.564444,-1.605139 -0.546806,-0.511528 -1.640417,-0.511528 h -2.839861 v 4.409722 h 4.586111 v 0.79375 h -4.586111 v 4.850694 h 3.01625 q 1.005417,0 1.675695,-0.440972 0.670277,-0.458611 1.111249,-1.569861 l 0.47625,0.176389 -0.511527,1.393472 q -0.229306,0.635 -0.546806,0.934861 -0.3175,0.299861 -0.987778,0.299861 h -6.526388 z"
         style="fill:#ff7e00;fill-opacity:1"
         id="path1047"
         inkscape:connector-curvature="0" />
      <path
         d="m 76.805328,84.892358 q 0,-0.899583 -0.246945,-1.322917 -0.229305,-0.440972 -0.970139,-0.440972 h -0.176389 v -0.529166 h 1.74625 q 0.599722,0 0.934861,0.15875 0.352778,0.141111 0.546806,0.493889 0.899583,-0.829028 2.575277,-0.829028 1.675695,0 2.504722,0.79375 0.846667,0.776111 0.846667,2.451805 v 5.221111 h -2.293055 v -5.23875 q 0,-1.217083 -0.458611,-1.781527 -0.440973,-0.564445 -1.217084,-0.564445 -0.934861,0 -1.499305,0.440972 v 7.14375 h -2.293055 z"
         style="fill:#ff7e00;fill-opacity:1"
         id="path1049"
         inkscape:connector-curvature="0" />
      <path
         d="m 89.879604,91.065969 q -1.781528,0 -2.751667,-1.199445 -0.9525,-1.217083 -0.9525,-3.122083 0,-1.905 0.970139,-3.104444 0.987778,-1.217083 2.822222,-1.217083 1.005417,0 1.852083,0.529166 v -1.411111 q 0,-0.899583 -0.246944,-1.322916 -0.246945,-0.440972 -0.987778,-0.440972 H 90.40877 v -0.529167 h 2.116667 q 0.635,0 0.970139,0.211667 0.335139,0.211666 0.47625,0.705555 0.141111,0.47625 0.141111,1.375833 V 90.88958 H 92.613631 L 91.99627,90.09583 h -0.08819 q -0.246945,0.405694 -0.79375,0.687916 -0.529167,0.282223 -1.234722,0.282223 z m 0.352777,-0.79375 q 0.564445,0 0.9525,-0.352778 0.405695,-0.352778 0.635,-0.79375 V 83.74583 q -0.723194,-0.529166 -1.499305,-0.529166 -1.763889,0 -1.763889,3.527777 0,1.640417 0.388056,2.592917 0.405694,0.934861 1.287638,0.934861 z"
         style="fill:#ff7e00;fill-opacity:1"
         id="path1051"
         inkscape:connector-curvature="0" />
    </g>
    <g
       aria-label="of the World"
       style="font-style:normal;font-variant:normal;font-weight:bold;font-stretch:normal;font-size:17.63888741px;line-height:1.25;font-family:'El Messiri';-inkscape-font-specification:'El Messiri Bold';letter-spacing:0px;word-spacing:0px;fill:#ff7e00;fill-opacity:1;stroke:none;stroke-width:0.26458332"
       id="text164"
       transform="translate(91.545835,-14.287502)">
      <path
         d="m 12.895334,105.88264 q -1.287639,0 -2.257778,-0.56444 -0.9525,-0.58209 -1.4640278,-1.55222 -0.5115278,-0.98778 -0.5115278,-2.20487 0,-1.21708 0.5115278,-2.187218 0.5115278,-0.987778 1.4640278,-1.552222 0.970139,-0.582084 2.257778,-0.582084 1.287639,0 2.240139,0.582084 0.970139,0.564444 1.481667,1.552222 0.511527,0.970138 0.511527,2.187218 0,1.21709 -0.511527,2.20487 -0.511528,0.97013 -1.481667,1.55222 -0.9525,0.56444 -2.240139,0.56444 z m 0,-0.79375 q 0.899583,0 1.375833,-0.97014 0.47625,-0.97014 0.47625,-2.55764 0,-1.587496 -0.47625,-2.557635 -0.47625,-0.970139 -1.375833,-0.970139 -0.899583,0 -1.375833,0.970139 -0.476251,0.970139 -0.476251,2.557635 0,1.5875 0.476251,2.55764 0.47625,0.97014 1.375833,0.97014 z"
         style="font-size:17.63888931px;fill:#ff7e00;stroke-width:0.26458332;fill-opacity:1"
         id="path1054"
         inkscape:connector-curvature="0" />
      <path
         d="m 19.046621,98.209725 h -1.058333 v -0.79375 h 1.058333 v -0.47625 q 0,-1.499306 0.846667,-2.275417 0.864305,-0.776111 2.592916,-0.776111 0.493889,0 0.934861,0.08819 0.458612,0.07055 0.670278,0.211666 0.458611,0.264584 0.687917,0.758473 l -0.705556,0.617361 q -0.264583,-0.423334 -0.652639,-0.652639 -0.388055,-0.229306 -0.846666,-0.229306 -0.617361,0 -0.934861,0.511528 -0.299861,0.511528 -0.299861,1.74625 v 0.47625 h 2.293055 v 0.79375 h -2.293055 v 7.49653 h -2.293056 z"
         style="font-size:17.63888931px;fill:#ff7e00;stroke-width:0.26458332;fill-opacity:1"
         id="path1056"
         inkscape:connector-curvature="0" />
      <path
         d="m 32.201649,105.88264 q -1.217084,0 -1.887362,-0.65264 -0.670277,-0.67027 -0.670277,-1.92264 v -5.097635 h -1.058334 v -0.79375 h 1.058334 v -1.5875 l 0.881944,-1.058333 h 1.411111 v 2.645833 h 1.940278 v 0.79375 h -1.940278 v 5.203475 q 0,0.9525 0.229306,1.32291 0.229305,0.35278 0.687916,0.35278 0.723195,0 1.393473,-0.47625 l 0.246944,0.49389 q -0.881944,0.77611 -2.293055,0.77611 z"
         style="font-size:17.63888931px;fill:#ff7e00;stroke-width:0.26458332;fill-opacity:1"
         id="path1058"
         inkscape:connector-curvature="0" />
      <path
         d="m 35.509217,96.357642 q 0,-0.899584 -0.246944,-1.322917 -0.246945,-0.440972 -0.987778,-0.440972 h -0.176389 v -0.529167 h 2.116667 q 0.635,0 0.970139,0.211667 0.335139,0.211666 0.47625,0.705555 0.141111,0.47625 0.141111,1.375834 v 1.552222 q 0.335139,-0.264583 0.864305,-0.458611 0.529167,-0.211667 1.075973,-0.211667 1.42875,0 2.38125,0.740834 0.970139,0.723194 0.970139,2.48708 v 5.23875 h -2.293056 v -5.15055 q 0,-1.270003 -0.458611,-1.852086 -0.440972,-0.582083 -1.128889,-0.582083 -0.687917,0 -1.411111,0.617361 v 6.967358 h -2.293056 z"
         style="font-size:17.63888931px;fill:#ff7e00;stroke-width:0.26458332;fill-opacity:1"
         id="path1060"
         inkscape:connector-curvature="0" />
      <path
         d="m 48.772282,105.88264 q -1.217084,0 -2.134306,-0.56444 -0.917222,-0.56445 -1.42875,-1.53459 -0.493889,-0.98777 -0.493889,-2.2225 0,-1.37583 0.493889,-2.345968 0.511528,-0.970139 1.393472,-1.464028 0.881945,-0.511528 1.993195,-0.511528 1.093611,0 1.975556,0.440972 0.881944,0.440973 1.393472,1.252362 0.511528,0.79375 0.511528,1.83444 l -0.07056,1.11125 h -5.309306 q 0,1.6757 0.511528,2.45181 0.511528,0.75847 1.42875,0.75847 0.846667,0 1.411111,-0.37041 0.582084,-0.38806 1.11125,-1.09362 l 0.546806,0.4057 q -0.511528,0.79375 -1.287639,1.32292 -0.758472,0.52916 -2.046111,0.52916 z m 1.322917,-4.79778 q 0,-1.658052 -0.388056,-2.345968 -0.388056,-0.705556 -1.11125,-0.705556 -0.670278,0 -1.093611,0.723195 -0.405695,0.705555 -0.405695,2.328329 z"
         style="font-size:17.63888931px;fill:#ff7e00;stroke-width:0.26458332;fill-opacity:1"
         id="path1062"
         inkscape:connector-curvature="0" />
      <path
         d="m 58.540095,96.128336 q -0.388056,-0.970139 -0.79375,-1.375833 -0.405694,-0.405695 -0.9525,-0.47625 v -0.352778 l 0.740833,-0.03528 q 1.181806,0 2.06375,0.440972 0.881945,0.423334 1.42875,1.799167 l 2.38125,6.085416 1.587501,-4.515555 -0.617362,-1.569861 q -0.388055,-0.9525 -0.846666,-1.358194 -0.440973,-0.423334 -1.023056,-0.493889 v -0.352778 l 0.687917,-0.03528 q 1.181805,0 2.06375,0.440972 0.881944,0.440973 1.42875,1.799167 l 2.522361,6.420558 3.01625,-8.484308 H 73.07454 L 68.894123,105.865 H 68.188567 L 65.472179,98.950558 63.055651,105.865 h -0.705556 z"
         style="font-size:17.63888931px;fill:#ff7e00;stroke-width:0.26458332;fill-opacity:1"
         id="path1064"
         inkscape:connector-curvature="0" />
      <path
         d="m 77.215265,105.88264 q -1.287639,0 -2.257778,-0.56444 -0.9525,-0.58209 -1.464028,-1.55222 -0.511528,-0.98778 -0.511528,-2.20487 0,-1.21708 0.511528,-2.187218 0.511528,-0.987778 1.464028,-1.552222 0.970139,-0.582084 2.257778,-0.582084 1.287639,0 2.240139,0.582084 0.970139,0.564444 1.481667,1.552222 0.511527,0.970138 0.511527,2.187218 0,1.21709 -0.511527,2.20487 -0.511528,0.97013 -1.481667,1.55222 -0.9525,0.56444 -2.240139,0.56444 z m 0,-0.79375 q 0.899583,0 1.375833,-0.97014 0.47625,-0.97014 0.47625,-2.55764 0,-1.587496 -0.47625,-2.557635 -0.47625,-0.970139 -1.375833,-0.970139 -0.899583,0 -1.375833,0.970139 -0.47625,0.970139 -0.47625,2.557635 0,1.5875 0.47625,2.55764 0.47625,0.97014 1.375833,0.97014 z"
         style="font-size:17.63888931px;fill:#ff7e00;stroke-width:0.26458332;fill-opacity:1"
         id="path1066"
         inkscape:connector-curvature="0" />
      <path
         d="m 88.816974,97.592364 q 0.3175,0.229306 0.458612,0.511528 0.141111,0.264583 0.141111,0.282222 l -0.899584,0.687917 q -0.194027,-0.282223 -0.511527,-0.47625 -0.3175,-0.211667 -0.705556,-0.211667 -1.023056,0 -1.569861,0.546806 0.07055,0.564444 0.07055,0.846666 v 5.926664 h -2.293055 v -5.997219 q 0,-0.899584 -0.246945,-1.322917 -0.229305,-0.440972 -0.970139,-0.440972 h -0.176388 v -0.529167 h 1.74625 q 0.599722,0 0.934861,0.15875 0.352777,0.141111 0.546805,0.493889 0.9525,-0.829028 2.2225,-0.829028 0.758473,0 1.252361,0.352778 z"
         style="font-size:17.63888931px;fill:#ff7e00;stroke-width:0.26458332;fill-opacity:1"
         id="path1068"
         inkscape:connector-curvature="0" />
      <path
         d="m 90.597952,96.357642 q 0,-0.899584 -0.246945,-1.322917 -0.246944,-0.440972 -0.987778,-0.440972 h -0.176388 v -0.529167 h 2.116666 q 0.635,0 0.970139,0.211667 0.335139,0.211666 0.47625,0.705555 0.141111,0.47625 0.141111,1.375834 v 9.348608 h -2.293055 z"
         style="font-size:17.63888931px;fill:#ff7e00;stroke-width:0.26458332;fill-opacity:1"
         id="path1070"
         inkscape:connector-curvature="0" />
      <path
         d="m 98.373392,105.88264 q -1.781528,0 -2.751667,-1.19944 -0.9525,-1.21709 -0.9525,-3.12209 0,-1.904996 0.970139,-3.10444 0.987778,-1.217084 2.822222,-1.217084 1.005417,0 1.852084,0.529167 v -1.411111 q 0,-0.899584 -0.24694,-1.322917 -0.246949,-0.440972 -0.987782,-0.440972 h -0.176389 v -0.529167 h 2.116671 q 0.635,0 0.97013,0.211667 0.33514,0.211666 0.47625,0.705555 0.14112,0.47625 0.14112,1.375834 v 9.348608 h -1.49931 l -0.61736,-0.79375 h -0.0882 q -0.24694,0.4057 -0.793746,0.68792 -0.529166,0.28222 -1.234722,0.28222 z m 0.352778,-0.79375 q 0.564444,0 0.9525,-0.35278 0.40569,-0.35277 0.635,-0.79375 v -5.379857 q -0.723195,-0.529167 -1.499306,-0.529167 -1.763889,0 -1.763889,3.527774 0,1.64042 0.388056,2.59292 0.405694,0.93486 1.287639,0.93486 z"
         style="font-size:17.63888931px;fill:#ff7e00;stroke-width:0.26458332;fill-opacity:1"
         id="path1072"
         inkscape:connector-curvature="0" />
    </g>
  </g>
</svg>
